<?xml version="1.0" encoding="utf-8"?><!--Generator: Adobe Illustrator 20.1.0, SVG Export Plug-In . SVG Version: 6.00 Build 0)--><svg version="1.1" id="Layer_1" xmlns="http://www.w3.org/2000/svg" xmlns:xlink="http://www.w3.org/1999/xlink" x="0px" y="0px" viewBox="0 0 565.2 106.1" style="enable-background:new 0 0 565.2 106.1;" xml:space="preserve"><style type="text/css">.st0{fill:#FFFFFF;}</style><title>Main NHTSA Logo_wo_tag_B&amp;amp;W</title><g><path class="st0" d="M11.1,25.2c-0.4,0-0.8,0.3-0.8,0.8c0,0,0,0,0,0c0.2,3.2,1.4,6.2,3.6,8.6c0.3,0.3,0.8,0.4,1.1,0.1
		c0,0,0.1-0.1,0.1-0.1l2.2-3.3l-2.1-6L11.1,25.2z"/><path class="st0" d="M27.7,33.2h-7.1l-2.5,3.6c-0.2,0.4-0.1,0.8,0.2,1.1c0,0,0.1,0,0.1,0.1c3.6,1.6,7.8,1.6,11.4,0
		c0.4-0.2,0.6-0.7,0.4-1c0,0,0-0.1-0.1-0.1L27.7,33.2z"/><path class="st0" d="M12,21.4h24.3c0.4,0,0.8-0.3,0.8-0.8c0-0.1,0-0.2-0.1-0.3c-2.8-7.1-10.8-10.7-17.9-7.9
		c-3.6,1.4-6.5,4.3-7.9,7.9c-0.2,0.4,0,0.9,0.4,1C11.8,21.3,11.9,21.4,12,21.4z"/><path class="st0" d="M37.2,25.2h-4.1l-2.1,6l2.2,3.3c0.2,0.4,0.7,0.5,1.1,0.2c0.1,0,0.1-0.1,0.1-0.1c2.2-2.4,3.4-5.4,3.6-8.6
		C38,25.6,37.7,25.2,37.2,25.2C37.2,25.2,37.2,25.2,37.2,25.2z"/><path class="st0" d="M45.2,1.1H3.1C1.4,1.1,0,2.4,0,4.1c0,0,0,0,0,0v42.1c0,1.7,1.4,3.1,3.1,3.1h42.1c1.7,0,3.1-1.4,3.1-3.1V4.1
		C48.3,2.4,46.9,1.1,45.2,1.1z M35.9,38.5c-1,0.8-2,1.6-3.1,2.2c-5.4,3-11.9,3-17.3,0c-5.6-3.1-9-9-9-15.4c0,0,0-0.1,0-0.1
		c0.2-9.8,8.3-17.5,18.1-17.3c9.4,0.2,17,7.8,17.3,17.3c0,0,0,0.1,0,0.1C41.9,30.3,39.7,35.1,35.9,38.5z"/><polygon class="st0" points="80.6,77.7 79.8,75.2 78.6,71.4 77.4,75.2 76.6,77.7 73.9,77.7 70,77.7 73.1,80 75.3,81.6 74.5,84.1 
		73.3,87.8 76.4,85.5 78.6,84 80.8,85.5 83.9,87.8 82.7,84.1 81.9,81.6 84.1,80 87.2,77.7 83.3,77.7 	"/><path class="st0" d="M99.6,55.5H57.5c-1.7,0-3.1,1.4-3.1,3.1v42.1c0,1.7,1.4,3.1,3.1,3.1c0,0,0,0,0,0h42.1c1.7,0,3.1-1.4,3.1-3.1
		V58.5C102.7,56.8,101.3,55.5,99.6,55.5C99.6,55.5,99.6,55.5,99.6,55.5z M97.9,74.5L86.2,83l4.5,13.7c0,0.1,0,0.3-0.2,0.3
		c0,0-0.1,0-0.1,0c-0.1,0-0.1,0-0.2-0.1l-11.7-8.5L66.9,97c0,0-0.1,0.1-0.2,0.1c-0.1,0-0.3-0.1-0.3-0.3c0,0,0-0.1,0-0.1L71,83
		l-11.7-8.5c-0.1-0.1-0.1-0.3-0.1-0.4c0.1-0.1,0.1-0.1,0.2-0.1h14.4l4.5-13.7c0-0.1,0.2-0.2,0.3-0.2c0.1,0,0.1,0.1,0.2,0.2L83.3,74
		h14.4c0.1,0,0.3,0.1,0.3,0.3C98,74.4,98,74.4,97.9,74.5L97.9,74.5z"/><path class="st0" d="M57.5,49.3h42.1c1.7,0,3.1-1.4,3.1-3.1V4.2c0-1.7-1.4-3.1-3.1-3.1H57.5c-1.7,0-3.1,1.4-3.1,3.1v42.1
		C54.4,48,55.8,49.3,57.5,49.3C57.5,49.3,57.5,49.3,57.5,49.3z M83.5,43.2L78,34.9l-0.2-6.2l0.3-1l9.8,15.6L83.5,43.2z M80.6,6.8
		c2.1,0,3.8,1.7,3.8,3.8c0,2.1-1.7,3.8-3.8,3.8c-0.8,0-1.6-0.3-2.2-0.7c-1.7-1.2-2.1-3.6-0.9-5.2C78.3,7.4,79.4,6.8,80.6,6.8
		L80.6,6.8z M66.8,23.1c1-1.3,2.1-2.5,3.3-3.7c0.7-0.7,2.3-2.2,3.3-3.1c1.6-1.4,4.3-2.1,6.1-0.7c0.7,0.6,1.2,1.4,1.5,2.3
		c0.4,1.2,1.1,2.6,1.5,3.8l0.1,0.1c0.1,0.1,0.1,0.2,0.2,0.2l0.1,0.1l5.4,2.5L87,28.1l-1.7-0.6c-1.1-0.5-1.2-0.4-2.3-0.9
		c-0.6-0.2-0.6-0.3-1.2-0.5c-0.2-0.1-0.4-0.2-0.6-0.3c-0.7-0.2-1.4-0.8-2.3-3.2c0,0.1-2.1,6-2.1,6c0,0.8,0.1,3.2,0.2,4.9l0.1,1.2
		c0.1,1.5-0.4,2-1.4,2.9c-2,1.9-5.7,5.6-5.7,5.6l-3-2.5l5.7-6c0,0-0.7-3.7-0.7-4.1c-0.3-1.1-0.4-2.3-0.3-3.4c0-0.1,0-0.2,0-0.3
		l1.2-4.9c-0.6,0.4-1.2,0.9-1.8,1.5c-1.3,1.4-2.5,2.9-3.6,4.4L64.7,26C64.8,25.8,66.4,23.6,66.8,23.1z"/><path class="st0" d="M45.2,55.5H3.1c-1.7,0-3.1,1.4-3.1,3.1c0,0,0,0,0,0v42.1c0,1.7,1.4,3.1,3.1,3.1c0,0,0,0,0,0h42.1
		c1.7,0,3.1-1.4,3.1-3.1V58.5C48.3,56.8,46.9,55.5,45.2,55.5C45.2,55.5,45.2,55.5,45.2,55.5z M6.3,93.3l11.3-27.5h1.2L9.6,93.3H6.3z
		 M25.9,93.3l-0.1-2.3h-3.3l-0.1,2.3h-9.7l7.2-27.5h3.6l-0.1,2.3h1.5l-0.1-2.3h3.6l7.2,27.5H25.9z M38.7,93.3l-9.2-27.5h1.2L42,93.3
		H38.7z"/><polygon class="st0" points="22.9,81.3 22.6,87.6 25.7,87.6 25.4,81.3 	"/><polygon class="st0" points="25,71.6 23.3,71.6 23,77.9 25.3,77.9 	"/><polygon class="st0" points="178.9,50.4 128.6,1.2 118.4,1.2 118.4,104 146.3,104 146.3,55.1 196.5,104.1 206.6,104.1 206.6,1.7 
		178.9,1.7 	"/><polygon class="st0" points="271.5,38.4 241.4,38.4 241.4,1.7 213.8,1.7 213.8,104 241.4,104 241.4,63.4 271.5,63.4 271.5,104 
		299.1,104 299.1,1.7 271.5,1.7 	"/><polygon class="st0" points="305,26 329.9,26 329.9,104 356.7,104 356.7,26 381.4,26 381.4,1.7 305,1.7 	"/><path class="st0" d="M453.6,49.1C446,45,436,43.8,426,42.7c-3-0.3-5.9-0.8-8.8-1.6c-2.5-0.8-4.4-1.8-5.5-3.4
		c-0.8-1.2-1.2-2.5-1.2-3.9c0-0.2,0-0.5,0-0.8c0.2-2.8,2-5,4.6-6.5c2.9-1.6,6.2-2.4,9.5-2.3c3.1-0.1,6.2,0.7,8.9,2.3
		c2.4,1.4,3.9,4,3.9,6.8v0.6H463v-1.1c0.2-9.7-4.4-19-12.3-24.7C443.4,2.7,433.6,0,423.8,0S404.3,2.7,397,8.1
		c-7.9,5.6-12.5,14.8-12.3,24.5c0,0.2,0,0.5,0,0.7l0,0c0.1,11.1,3.9,18.7,10.5,23.7s15.8,7.2,26.8,8l0,0c3.4,0.1,6.8,0.5,10.2,1.2
		c2.9,0.6,5.1,1.7,6.4,3.2c0.9,1.1,1.4,2.5,1.3,3.9c0,2.7-1.7,4.7-4.5,6.1c-6.8,3-14.5,2.9-21.2-0.1c-2.9-1.6-4.7-3.8-4.7-6.7v-0.6
		h-26.1v1c-0.2,10,4.7,19.4,12.9,25c7.7,5.5,18,8.2,28.3,8.2s20.8-2.8,28.6-8.2s13.2-13.7,13.1-24.6
		C466.3,60.6,461.2,53.3,453.6,49.1z"/><path class="st0" d="M519.5,0.9h-11.1l-45.5,98.7v3.8h25.3l5.9-12.7H534l5.9,12.7h25.3v-3.8L519.5,0.9z M502.6,68l11.3-25.3
		l0.5,1.2L525.5,68H502.6z"/></g></svg>